<?xml version="1.0" encoding="UTF-8" standalone="no"?>
<svg
   version="1.1"
   id="Layer_1"
   x="0px"
   y="0px"
   width="547"
   viewBox="0 0 547 131"
   enable-background="new 0 0 554 576"
   xml:space="preserve"
   sodipodi:docname="logo_7.svg"
   height="131"
   inkscape:version="1.4.2 (ebf0e940, 2025-05-08)"
   xmlns:inkscape="http://www.inkscape.org/namespaces/inkscape"
   xmlns:sodipodi="http://sodipodi.sourceforge.net/DTD/sodipodi-0.dtd"
   xmlns="http://www.w3.org/2000/svg"
   xmlns:svg="http://www.w3.org/2000/svg"><defs
   id="defs36"><rect
     x="115.19471"
     y="20.641827"
     width="423.49039"
     height="118.52404"
     id="rect36" /></defs><sodipodi:namedview
   id="namedview36"
   pagecolor="#ffffff"
   bordercolor="#000000"
   borderopacity="0.25"
   inkscape:showpageshadow="2"
   inkscape:pageopacity="0.0"
   inkscape:pagecheckerboard="0"
   inkscape:deskcolor="#d1d1d1"
   inkscape:zoom="7.5120727"
   inkscape:cx="11.514798"
   inkscape:cy="42.797775"
   inkscape:window-width="3072"
   inkscape:window-height="1186"
   inkscape:window-x="0"
   inkscape:window-y="25"
   inkscape:window-maximized="0"
   inkscape:current-layer="Layer_1" />

<path
   fill="#bac2c5"
   opacity="1"
   stroke="none"
   d="m 54.55688,25.425283 c 2.63122,-2.39487 5.55038,-4.31473 9.00707,-5.2872 5.78212,-1.62668 11.32518,-1.00841 16.42158,2.19907 7.3524,4.62734 11.364938,11.5353 13.025888,19.90928 0.43545,2.19539 0.61789,4.44097 0.94123,6.84738 1.09074,0 2.34608,0.0664 3.59188,-0.0143 2.3542,-0.15247 4.091232,1.956 4.379342,3.81797 0.56851,3.67423 0.91791,7.38192 1.38802,11.07193 0.41401,3.24969 0.88873,6.49167 1.29979,9.74171 0.33753,2.6686 0.60118,5.34651 0.93385,8.015775 0.33228,2.66613 0.72345,5.32488 1.06322,7.99012 0.33082,2.59492 0.62637,5.19433 0.94466,7.79088 0.0537,0.43801 0.17335,0.8689 0.21245,1.30755 0.17262,1.936722 -0.38711,2.859242 -2.49224,3.893332 -23.62621,0.0254 -47.07564,0.0252 -70.525081,0.0243 -2.109871,-8e-5 -3.507041,-1.34188 -3.386507,-3.463612 0.110034,-1.93693 0.42093,-3.86285 0.655036,-5.7922 0.225176,-1.85577 0.461172,-3.71027 0.700107,-5.56433 0.280807,-2.179 0.578372,-4.35587 0.852921,-6.53564 0.252046,-2.001115 0.473937,-4.006015 0.726,-6.007125 0.270008,-2.14356 0.568489,-4.28354 0.838327,-6.42713 0.256459,-2.03733 0.484456,-4.07823 0.738736,-6.11586 0.267597,-2.1443 0.52157,-4.29099 0.837348,-6.42838 0.275717,-1.86619 0.196185,-3.8247 1.308033,-5.4944 0.21847,-0.26537 0.43694,-0.53074 0.7645,-0.86279 0.49692,-0.29516 0.88475,-0.52363 1.35333,-0.77048 0.39922,-0.0836 0.71768,-0.1489 1.13579,-0.19966 0.70337,0.005 1.30711,-0.005 2.01096,2.6e-4 0.60433,0.0146 1.10852,0.0146 1.59075,0.0146 0.11505,-1.75708 0.0861,-3.39467 0.35085,-4.98333 0.93732,-5.6253 2.87199,-10.85785 6.39614,-15.42504 0.18625,-0.24138 0.18896,-0.62438 0.27712,-0.94145 0.6633,-0.68201 1.32661,-1.36402 2.11829,-2.01145 0.26578,-0.0769 0.4032,-0.1883 0.54061,-0.29973 m 12.77063,52.68177 c 0.0737,0.39787 0.14739,0.79573 0.15591,1.32561 -0.36435,0.31808 -0.7287,0.636155 -1.23582,0.959835 -0.23645,0.15213 -0.4729,0.30424 -0.85356,0.50299 -1.57463,1.39978 -1.81398,3.24608 -1.63413,5.17688 0.23218,2.49274 2.98297,5.19354 5.54551,5.03556 0.38191,-0.009 0.76382,-0.0173 1.3141,-0.003 0.25344,-0.0721 0.50689,-0.14411 0.91883,-0.22465 0.39425,-0.22105 0.7885,-0.4421 1.33509,-0.66903 0.28085,-0.22974 0.56117,-0.46013 0.84262,-0.68912 2.5619,-2.08436 2.65584,-6.94464 -0.0426,-8.84794 -1.62177,-1.143885 -1.85183,-2.511035 -1.66599,-4.205705 0.0118,-0.10805 -0.019,-0.22078 -0.001,-0.52122 -0.021,-0.64009 -0.11973,-1.33915 1.10153,-1.1588 0.50357,0 1.00715,0 1.50359,0 0,-0.66587 0,-1.19541 0,-1.8069 -0.88467,0 -1.68609,0 -2.60783,0 0,-0.90964 0,-1.74021 0,-2.58839 -1.62226,0 -3.11989,0 -4.64639,0 0,0.4692 0,0.87147 -0.0291,1.47325 0.01,0.60405 0.0195,1.2081 -1.5e-4,2.01971 0.007,1.3458 0.0148,2.6916 -6e-4,4.22082 M 56.4903,32.440603 c -0.10562,0.11201 -0.21125,0.22403 -0.36188,0.49227 0.007,0.10118 0.014,0.20236 0.0173,0.29234 0,0 0.0109,0.005 -0.12069,-0.0692 -0.10344,0.0956 -0.20689,0.19125 -0.39158,0.41706 -0.27803,0.33698 -0.60209,0.64598 -0.82677,1.01542 -1.70564,2.80451 -2.90231,5.8084 -3.36363,9.06956 -0.2496,1.76442 -0.39392,3.54375 -0.59682,5.41883 10.1133,0 19.88942,0 29.86067,0.0134 0.45518,-0.008 0.91036,-0.017 1.55972,-0.003 0.45604,-0.0101 0.91209,-0.0203 1.56779,-0.002 0.60441,-0.01 1.20882,-0.0192 2.01363,5.2e-4 0.50486,0 1.00973,0 1.758258,0 -0.21828,-2.02453 -0.315038,-3.89987 -0.639348,-5.735 -0.77969,-4.41194 -2.55867,-8.40366 -5.55145,-11.76373 -3.73256,-4.19062 -8.38597,-6.30133 -14.06548,-5.71997 -2.16976,0.22209 -4.19011,1.00587 -6.05566,2.15092 -0.0478,0.0293 -0.0152,0.18958 -0.007,0.29138 0,0 10e-4,-0.0135 -0.14099,-0.10407 -0.23935,0.18308 -0.47871,0.36616 -0.80062,0.68457 -0.80877,0.69718 -1.61753,1.39435 -2.41483,2.09832 0,0 10e-4,-0.0133 -0.11868,-0.11176 -0.10847,0.10034 -0.21694,0.20067 -0.46623,0.37348 -0.25289,0.44049 -0.50578,0.88098 -0.75618,1.3072 0,0 0.0138,0.004 -0.0997,-0.11725 z"
   id="path2"
   style="stroke-width:0.223498" />
<path
   fill="#0080ff"
   opacity="1"
   stroke="none"
   d="m 33.795946,54.942013 c 0.536357,-0.57121 1.072711,-1.14243 1.693116,-1.57981 -0.07132,1.21816 -0.232775,2.30168 -0.380854,3.38701 -0.366108,2.68332 -0.744577,5.36514 -1.082581,8.05203 -0.260993,2.07473 -0.45107,4.15831 -0.703907,6.23416 -0.269934,2.21619 -0.585527,4.42679 -0.864421,6.64194 -0.247323,1.96439 -0.456476,3.933635 -0.709818,5.897215 -0.346548,2.686 -0.719653,5.36857 -1.08011,8.05278 -0.365321,2.72043 -0.661877,5.45229 -1.113452,8.15829 -0.40873,2.449292 1.058154,4.288712 3.587267,4.288722 23.524164,1e-4 47.048334,2e-5 70.572504,0 -0.49718,0.54981 -0.99435,1.09961 -1.61972,1.72677 -0.48539,0.14648 -0.84255,0.276 -1.19978,0.27615 -23.41903,0.01 -46.83807,0.0104 -70.257111,0.005 -1.668503,-3.8e-4 -3.150433,-1.44525 -3.076977,-3.11807 0.06758,-1.53887 0.305977,-3.071432 0.495705,-4.603482 0.338341,-2.73207 0.701727,-5.46103 1.045067,-8.19249 0.256559,-2.0411 0.490507,-4.08506 0.748134,-6.12601 0.340165,-2.69484 0.704411,-5.386665 1.037882,-8.082305 0.252713,-2.04284 0.454262,-4.09207 0.713238,-6.13406 0.341596,-2.69345 0.714584,-5.38293 1.078834,-8.07348 0.290106,-2.14288 0.587349,-4.28479 0.881423,-6.42713 0,0 0.004,0.0184 0.06083,0.004 0.09614,-0.13876 0.135432,-0.26285 0.174726,-0.38694 z"
   id="path3"
   style="stroke-width:0.223498" />
<path
   fill="#800080"
   opacity="1"
   stroke="none"
   d="m 103.74996,104.00381 c -23.56044,0.0706 -47.08461,0.0706 -70.608774,0.0705 -2.529113,-1e-5 -3.995997,-1.83943 -3.587267,-4.288722 0.451575,-2.706 0.748131,-5.43786 1.113452,-8.15829 0.360457,-2.68421 0.733562,-5.36678 1.08011,-8.05278 0.253342,-1.96358 0.462495,-3.932825 0.709818,-5.897215 0.278894,-2.21515 0.594487,-4.42575 0.864421,-6.64194 0.252837,-2.07585 0.442914,-4.15943 0.703907,-6.23416 0.338004,-2.68689 0.716473,-5.36871 1.082581,-8.05203 0.148079,-1.08533 0.309534,-2.16885 0.458704,-3.34698 -0.0062,-0.0938 0.0075,-0.0808 0.06806,-0.0867 0.09788,-0.13229 0.135195,-0.25864 0.172514,-0.38499 0.683952,-0.68114 1.367908,-1.36227 2.13146,-2.03477 -1.032251,1.67832 -0.952719,3.63683 -1.228436,5.50302 -0.315778,2.13739 -0.569751,4.28408 -0.837348,6.42838 -0.25428,2.03763 -0.482277,4.07853 -0.738736,6.11586 -0.269838,2.14359 -0.568319,4.28357 -0.838327,6.42713 -0.252063,2.00111 -0.473954,4.00601 -0.726,6.007125 -0.274549,2.17977 -0.572114,4.35664 -0.852921,6.53564 -0.238935,1.85406 -0.474931,3.70856 -0.700107,5.56433 -0.234106,1.92935 -0.545002,3.85527 -0.655036,5.7922 -0.120534,2.121732 1.276636,3.463532 3.386507,3.463612 23.449438,9.6e-4 46.898868,0.001 70.452418,0.004 -0.40217,0.40053 -0.90845,0.79816 -1.451,1.26633 z"
   id="path4"
   style="stroke-width:0.223498" />
<path
   fill="#00ff80"
   opacity="1"
   stroke="none"
   d="m 33.490322,55.272923 c -0.224011,2.19464 -0.521254,4.33655 -0.81136,6.47943 -0.36425,2.69055 -0.737238,5.38003 -1.078834,8.07348 -0.258976,2.04199 -0.460525,4.09122 -0.713238,6.13406 -0.333471,2.69564 -0.697717,5.387465 -1.037882,8.082305 -0.257627,2.04095 -0.491575,4.08491 -0.748134,6.12601 -0.34334,2.73146 -0.706726,5.46042 -1.045067,8.19249 -0.189728,1.53205 -0.428128,3.064612 -0.495705,4.603482 -0.07346,1.67282 1.408474,3.11769 3.076977,3.11807 23.419041,0.005 46.838081,0.005 70.257111,-0.005 0.35723,-1.5e-4 0.71439,-0.12967 1.16329,-0.20682 -0.47921,0.54114 -1.05015,1.09029 -1.76069,1.70966 -23.7029,0.0702 -47.26618,0.0707 -70.829466,0.0695 -1.870564,-9e-5 -3.319952,-1.38834 -3.250864,-3.24048 0.04752,-1.27404 0.278159,-2.54128 0.427674,-3.81148 0.235061,-1.996932 0.45746,-3.995492 0.709755,-5.990252 0.270058,-2.13521 0.583708,-4.26493 0.850207,-6.40056 0.253586,-2.03214 0.455695,-4.07069 0.708247,-6.10296 0.26993,-2.172155 0.585543,-4.338605 0.856785,-6.510595 0.249229,-1.99572 0.445821,-3.9981 0.702593,-5.99278 0.26529,-2.06088 0.569238,-4.11687 0.867047,-6.17344 0.357939,-2.47181 0.260589,-5.02692 1.339758,-7.36767 0.247246,-0.27959 0.49449,-0.55917 0.811796,-0.78646 z"
   id="path5"
   style="stroke-width:0.223498" />
<path
   fill="#ff8040"
   opacity="1"
   stroke="none"
   d="m 32.599437,56.046553 c -1.00008,2.35358 -0.90273,4.90869 -1.260669,7.3805 -0.297809,2.05657 -0.601757,4.11256 -0.867047,6.17344 -0.256772,1.99468 -0.453364,3.99706 -0.702593,5.99278 -0.271242,2.17199 -0.586855,4.33844 -0.856785,6.510595 -0.252552,2.03227 -0.454661,4.07082 -0.708247,6.10296 -0.266499,2.13563 -0.580149,4.26535 -0.850207,6.40056 -0.252295,1.99476 -0.474694,3.99332 -0.709755,5.990252 -0.149515,1.2702 -0.380151,2.53744 -0.427674,3.81148 -0.06909,1.85214 1.3803,3.24039 3.250864,3.24048 23.563286,10e-4 47.126566,7.6e-4 70.791936,7.1e-4 -0.455782,0.94106 -1.346292,1.12234 -2.349182,1.12203 -19.884638,-0.006 -39.769278,-0.004 -59.653918,-0.004 -3.276869,0 -6.55374,2.4e-4 -9.830609,-7e-5 -2.515269,-2.4e-4 -3.993258,-1.86557 -3.556313,-4.30848 0.379781,-2.1233 0.591543,-4.27657 0.881694,-6.416032 0.363926,-2.68345 0.752254,-5.36376 1.091903,-8.05026 0.262283,-2.07457 0.439887,-4.15986 0.701924,-6.23447 0.339318,-2.68649 0.744961,-5.364595 1.084541,-8.051055 0.262245,-2.07462 0.441297,-4.15976 0.703281,-6.23443 0.339234,-2.68643 0.799732,-5.35975 1.0619,-8.05294 0.165482,-1.69995 0.310559,-3.35867 1.404743,-4.75633 0.193286,-0.24689 0.478409,-0.4219 0.800213,-0.61727 z"
   id="path6"
   style="stroke-width:0.223498" />
<path
   fill="#800080"
   opacity="1"
   stroke="none"
   d="m 51.84546,27.796523 c -0.0356,0.25701 -0.0383,0.64001 -0.2246,0.88139 -3.52415,4.56719 -5.45882,9.79974 -6.39614,15.42504 -0.26472,1.58866 -0.2358,3.22625 -0.35085,4.98333 -0.48223,0 -0.98642,0 -1.59079,-0.11404 -0.0211,-1.2861 -0.0521,-2.4781 0.15616,-3.62673 0.86395,-4.7651 2.30489,-9.32301 5.05818,-13.38383 0.19912,-0.29368 0.20594,-0.71774 0.30216,-1.08119 0,0 0.0656,-0.0476 0.15503,-0.007 0.20933,-0.15766 0.32922,-0.35542 0.4491,-0.55318 0.79641,-0.82109 1.59282,-1.64219 2.44175,-2.52333 z"
   id="path7"
   style="stroke-width:0.223498" />
<path
   fill="#0080ff"
   opacity="1"
   stroke="none"
   d="m 48.73574,30.932833 c -0.0324,0.31111 -0.0392,0.73517 -0.23832,1.02885 -2.75329,4.06082 -4.19423,8.61873 -5.05818,13.38383 -0.20825,1.14863 -0.17728,2.34063 -0.25628,3.61216 -0.60369,0.10908 -1.20743,0.11868 -1.87002,0.0346 0.51167,-2.68691 0.9592,-5.31563 1.69437,-7.86127 0.52253,-1.80932 1.43284,-3.50665 2.17401,-5.2447 0.004,0.009 -0.0158,0.013 0.0615,-0.0133 0.18678,-0.37977 0.29625,-0.73319 0.40464,-1.08194 -0.001,0.005 -0.0106,0.006 0.0659,0.0346 0.16389,-0.14213 0.25126,-0.31277 0.37269,-0.55622 0.13556,-0.25428 0.23707,-0.43576 0.33858,-0.61723 0,0 0.0601,-0.0597 0.13222,-0.12711 0.11544,-0.20697 0.15877,-0.34656 0.20209,-0.48615 0.63765,-0.68456 1.27529,-1.36912 1.97678,-2.10602 z"
   id="path8"
   style="stroke-width:0.223498" />
<path
   fill="#ff8040"
   opacity="1"
   stroke="none"
   d="m 40.05563,49.289493 c -0.38784,0.22847 -0.77567,0.45694 -1.23936,0.68454 0.43162,-2.00563 0.83367,-4.04457 1.47011,-6.0075 1.08625,-3.35028 2.66395,-6.46998 4.97303,-9.24046 0.1214,0.0257 0.14862,0.0533 0.16626,0.1659 -0.0931,0.39236 -0.17665,0.69984 -0.26018,1.00731 0,0 0.0198,-0.004 -0.0608,-0.0578 -2.84107,4.04028 -4.27096,8.62422 -5.04905,13.44801 z"
   id="path9"
   style="stroke-width:0.223498" />
<path
   fill="#ff8040"
   opacity="1"
   stroke="none"
   d="m 46.35428,33.585723 c -0.0311,0.24786 -0.13265,0.42934 -0.32908,0.70605 -0.19273,0.23191 -0.29053,0.36859 -0.38833,0.50527 0,0 0.01,-0.001 -0.0432,-0.005 -0.0527,-0.004 -0.15843,0.0155 -0.15843,0.0155 -0.0272,-0.0277 -0.0544,-0.0553 -0.11704,-0.12975 0.29831,-0.41717 0.632,-0.78758 1.03607,-1.09161 z"
   id="path10"
   style="stroke-width:0.223498" />
<path
   fill="#0080ff"
   opacity="1"
   stroke="none"
   d="m 49.33778,30.347513 c -0.054,0.1701 -0.17384,0.36786 -0.37394,0.5072 0.0492,-0.19879 0.17861,-0.33916 0.37394,-0.5072 z"
   id="path11"
   style="stroke-width:0.223498" />
<path
   fill="#800080"
   opacity="1"
   stroke="none"
   d="m 54.47916,25.416573 c -0.0597,0.12014 -0.19711,0.23158 -0.40198,0.27559 0.0631,-0.13972 0.19369,-0.21201 0.40198,-0.27559 z"
   id="path12"
   style="stroke-width:0.223498" />
<path
   fill="#00ff80"
   opacity="1"
   stroke="none"
   d="m 33.716748,54.951773 c 0.0399,0.11433 6.11e-4,0.23842 -0.10493,0.37739 -0.03559,-0.11263 -0.0049,-0.24013 0.10493,-0.37739 z"
   id="path13"
   style="stroke-width:0.223498" />
<path
   fill="#0080ff"
   opacity="1"
   stroke="none"
   d="m 35.72807,52.940513 c 0.04209,0.11637 0.0048,0.24272 -0.100355,0.38105 -0.03823,-0.1157 -0.0086,-0.24339 0.100355,-0.38105 z"
   id="path14"
   style="stroke-width:0.223498" />
<path
   fill="#ff8040"
   opacity="1"
   stroke="none"
   d="m 46.66805,33.067723 c 0.0476,0.11072 0.004,0.25031 -0.096,0.4425 -0.0363,-0.1028 -0.0156,-0.25821 0.096,-0.4425 z"
   id="path15"
   style="stroke-width:0.223498" />

<path
   fill="#0080ff"
   opacity="1"
   stroke="none"
   d="m 57.91965,30.982143 c 0.80877,-0.69718 1.61753,-1.39435 2.54225,-2.16165 0.35287,-0.22136 0.58979,-0.37261 0.82671,-0.52386 0,0 -10e-4,0.0135 0.0795,0.01 2.75837,-1.19058 5.6253,-1.48553 8.4263,-1.03245 4.2868,0.69342 7.71517,3.00001 10.43737,6.42626 3.58584,4.51326 5.22481,9.66887 5.41584,15.35696 -0.60441,0.01 -1.20882,0.0192 -1.95324,-0.0642 -0.2618,-0.81114 -0.36364,-1.53332 -0.50851,-2.24678 -1.28459,-6.32644 -4.10773,-11.68099 -9.69091,-15.28197 -3.42887,-2.21152 -7.1884,-2.7744 -11.12406,-2.00108 -1.5244,0.29952 -2.96987,1.00075 -4.45129,1.51898 z"
   id="path17"
   style="stroke-width:0.223498" />
<path
   fill="#800080"
   opacity="1"
   stroke="none"
   d="m 85.74786,49.071843 c -0.29123,-5.70276 -1.9302,-10.85837 -5.51604,-15.37163 -2.7222,-3.42625 -6.15057,-5.73284 -10.43737,-6.42626 -2.801,-0.45308 -5.66793,-0.15813 -8.43293,1.03115 -0.0823,-0.0968 -0.11492,-0.25704 -0.0671,-0.28637 1.86555,-1.14505 3.8859,-1.92883 6.05566,-2.15092 5.67951,-0.58136 10.33292,1.52935 14.06548,5.71997 2.99278,3.36007 4.77176,7.35179 5.55145,11.76373 0.32431,1.83513 0.421068,3.71047 0.639348,5.735 -0.748528,0 -1.253398,0 -1.858458,-0.0147 z"
   id="path18"
   style="stroke-width:0.223498" />
<path
   fill="#00ff80"
   opacity="1"
   stroke="none"
   d="m 57.92538,30.985543 c 1.47569,-0.52163 2.92116,-1.22286 4.44556,-1.52238 3.93566,-0.77332 7.69519,-0.21044 11.12406,2.00108 5.58318,3.60098 8.40632,8.95553 9.69091,15.28197 0.14487,0.71346 0.24671,1.43564 0.40867,2.2324 -0.41585,0.0888 -0.8719,0.0989 -1.46084,0.0188 -0.63109,-1.85634 -1.02302,-3.66103 -1.64853,-5.38077 -1.52119,-4.18228 -4.03077,-7.65434 -7.73028,-10.20943 -3.59075,-2.47997 -7.56047,-3.21875 -11.78654,-2.37721 -1.50304,0.2993 -2.92298,1.016 -4.38085,1.54216 0.25289,-0.44049 0.50578,-0.88098 0.89906,-1.34648 0.24217,-0.1 0.34394,-0.17499 0.44572,-0.24998 0,0 -10e-4,0.0133 -0.007,0.01 z"
   id="path19"
   style="stroke-width:0.223498" />
<path
   fill="#ff8040"
   opacity="1"
   stroke="none"
   d="m 56.58879,32.564983 c 1.45662,-0.51902 2.87656,-1.23572 4.3796,-1.53502 4.22607,-0.84154 8.19579,-0.10276 11.78654,2.37721 3.69951,2.55509 6.20909,6.02715 7.73028,10.20943 0.62551,1.71974 1.01744,3.52443 1.55144,5.36938 -0.41937,0.0874 -0.87455,0.0958 -1.42729,0.0976 -0.92287,-2.32969 -1.51271,-4.77263 -2.62233,-6.95079 -2.33464,-4.58287 -5.78673,-8.09357 -10.85525,-9.65695 -3.68143,-1.13553 -7.30029,-0.82242 -10.89809,0.75346 -0.0912,-0.0941 -0.0983,-0.19528 -0.0149,-0.37475 0.1886,-0.14962 0.2868,-0.22095 0.38499,-0.29229 0,0 -0.0138,-0.004 -0.015,0.003 z"
   id="path20"
   style="stroke-width:0.223498;fill:#ff8242;fill-opacity:1" />
<path
   fill="#0080ff"
   opacity="1"
   stroke="none"
   d="m 72.7211,90.217228 c -0.39425,0.22105 -0.7885,0.4421 -1.24393,0.58328 0.99856,-3.17463 0.007,-5.97948 -2.54975,-7.59653 -0.54728,-0.34615 -0.75967,-0.76546 -0.73933,-1.44236 0.0249,-0.82905 -0.14667,-1.664 -0.19267,-2.577075 0.14146,-0.39489 0.24228,-0.70911 0.33894,-1.01035 0.43871,-0.0218 0.82879,-0.0411 1.29763,-0.0474 0.23828,0.0155 0.39783,0.018 0.57213,0.1224 0.0172,0.28787 0.0414,0.47659 0.0184,0.65938 -0.14094,1.122235 0.0751,1.956355 1.19149,2.629175 1.09952,0.66263 1.81932,1.78951 2.18743,3.09007 0.56848,2.00842 0.10239,3.83506 -0.88036,5.58945 z"
   id="path21"
   style="stroke-width:0.223498" />
<path
   fill="#800080"
   opacity="1"
   stroke="none"
   d="m 72.79728,90.214288 c 0.90657,-1.75145 1.37266,-3.57809 0.80418,-5.58651 -0.36811,-1.30056 -1.08791,-2.42744 -2.18743,-3.09007 -1.11644,-0.67282 -1.33243,-1.50694 -1.19149,-2.629175 0.023,-0.18279 -10e-4,-0.37151 -0.003,-0.75766 -0.01,-0.72973 -0.02,-1.25933 0.0228,-1.86534 0.61379,-0.10039 1.17434,-0.12434 1.73489,-0.14828 0.011,0.11055 0.0418,0.22328 0.03,0.33133 -0.18584,1.69467 0.0442,3.06182 1.66599,4.205705 2.69844,1.9033 2.6045,6.76358 0.0426,8.84794 -0.28145,0.22899 -0.56177,0.45938 -0.91878,0.69206 z"
   id="path22"
   style="stroke-width:0.223498" />

<path
   fill="#00ff80"
   opacity="1"
   stroke="none"
   d="m 67.95478,79.265223 c 0.0866,0.832395 0.25824,1.667345 0.23331,2.496395 -0.0203,0.6769 0.19205,1.09621 0.73933,1.44236 2.55672,1.61705 3.54831,4.4219 2.47051,7.60078 -0.27152,0.15616 -0.52497,0.22821 -0.86321,0.1884 0.22908,-2.90799 -0.94127,-4.95944 -3.21299,-6.50759 -0.26619,-0.1814 -0.36502,-0.68602 -0.43629,-1.0608 -0.19162,-1.00745 0.39827,-2.14092 -0.49506,-3.03788 0.36434,-0.31807 0.72869,-0.636145 1.19238,-1.035075 0.19024,-0.0828 0.28113,-0.0847 0.37202,-0.0866 z"
   id="path24"
   style="stroke-width:0.223498" />
<path
   fill="#ff8040"
   opacity="1"
   stroke="none"
   d="m 66.31899,80.389698 c 0.96472,0.89415 0.37483,2.02762 0.56645,3.03507 0.0713,0.37478 0.1701,0.8794 0.43629,1.0608 2.27172,1.54815 3.44207,3.5996 3.12881,6.49604 -0.3813,0.109 -0.76321,0.11766 -1.24067,0.11952 -0.008,-2.31057 -1.09671,-3.96968 -2.95226,-5.20297 -0.51024,-0.33914 -0.80002,-0.7175 -0.7479,-1.41223 0.0854,-1.13804 0.0237,-2.2871 0.0263,-3.53429 0.23866,-0.2549 0.47511,-0.40701 0.78295,-0.56194 z"
   id="path25"
   style="stroke-width:0.223498" />
<path
   fill="#800080"
   opacity="1"
   stroke="none"
   d="m 67.35735,71.667013 c 0,-0.40227 0,-0.80454 0,-1.27374 1.5265,0 3.02413,0 4.64639,0 0,0.84818 0,1.67875 0,2.58839 0.92174,0 1.72316,0 2.60783,0 0,0.61149 0,1.14103 0,1.8069 -0.49644,0 -1.00002,0 -1.61323,-0.107 -0.98211,-0.22665 -1.85456,-0.3463 -2.8053,-0.47668 0,-0.83046 0,-1.63353 0,-2.53787 -0.99936,0 -1.91752,0 -2.83569,0 z"
   id="path26"
   style="stroke-width:0.223498" />
<path
   fill="#0080ff"
   opacity="1"
   stroke="none"
   d="m 67.34281,71.766773 c 0.93271,-0.0998 1.85087,-0.0998 2.85023,-0.0998 0,0.90434 0,1.70741 0,2.53787 0.95074,0.13038 1.82319,0.25003 2.7054,0.46213 -1.01172,-0.0588 -0.91302,0.64026 -0.90647,1.37529 -0.57502,0.11889 -1.13557,0.14284 -1.84889,0.24287 -0.72607,0.0761 -1.29935,0.0761 -1.94701,0.0761 0,-0.98374 0,-1.78871 0,-2.62399 -0.33144,-0.0232 -0.58499,-0.0409 -0.83854,-0.0586 -0.01,-0.60405 -0.0195,-1.2081 -0.0147,-1.9119 z"
   id="path27"
   style="stroke-width:0.223498" />
<path
   fill="#00ff80"
   opacity="1"
   stroke="none"
   d="m 40.13637,49.271113 c 0.69735,-4.80541 2.12724,-9.38935 4.96436,-13.43889 -0.66058,1.79209 -1.57089,3.48942 -2.09342,5.29874 -0.73517,2.54564 -1.1827,5.17436 -1.79401,7.84677 -0.35925,0.14448 -0.67771,0.20974 -1.07693,0.29338 z"
   id="path28"
   style="stroke-width:0.223498" />
<path
   fill="#00ff80"
   opacity="1"
   stroke="none"
   d="m 67.34282,73.782453 c 0.26826,-0.0861 0.52181,-0.0683 0.85325,-0.0452 0,0.83528 0,1.64025 0,2.62399 0.64766,0 1.22094,0 1.89376,3.5e-4 0.11002,0.52993 0.12051,1.05953 0.11526,1.68738 -0.17527,0.0958 -0.33482,0.0933 -0.62416,5e-5 -0.83008,-0.10231 -1.53037,-0.11385 -2.23066,-0.12541 -0.007,-1.3458 -0.0148,-2.6916 -0.007,-4.14118 z"
   id="path29"
   style="stroke-width:0.223498" />
<path
   fill="#ff8040"
   opacity="1"
   stroke="none"
   d="m 67.33889,78.015343 c 0.71167,-0.0802 1.41196,-0.0686 2.1633,0.0206 -0.33904,0.0971 -0.72912,0.11643 -1.16783,0.1382 -0.0967,0.30124 -0.19748,0.61546 -0.33894,1.01035 -0.13153,0.0826 -0.22242,0.0845 -0.38008,0.10126 -0.14044,-0.38302 -0.21414,-0.78088 -0.27645,-1.27046 z"
   id="path30"
   style="stroke-width:0.223498" />
<path
   fill="#800080"
   opacity="1"
   stroke="none"
   d="m 61.21759,28.251333 c -0.1659,0.19655 -0.40282,0.3478 -0.71441,0.5015 0.16468,-0.18063 0.40404,-0.36371 0.71441,-0.5015 z"
   id="path31"
   style="stroke-width:0.223498" />
<path
   fill="#ff8040"
   opacity="1"
   stroke="none"
   d="m 56.09083,33.192943 c -0.0358,0.10844 -0.13733,0.18 -0.3075,0.25077 0.0348,-0.0964 0.13828,-0.19203 0.3075,-0.25077 z"
   id="path32"
   style="stroke-width:0.223498" />
<path
   fill="#00ff80"
   opacity="1"
   stroke="none"
   d="m 56.54707,32.501453 c -0.0414,0.13218 -0.13964,0.20351 -0.30574,0.27502 0.0377,-0.11184 0.14335,-0.22386 0.30574,-0.27502 z"
   id="path33"
   style="stroke-width:0.223498" />
<path
   fill="#0080ff"
   opacity="1"
   stroke="none"
   d="m 57.87238,30.926423 c -0.0418,0.12423 -0.14361,0.19922 -0.31537,0.26298 0.0385,-0.11156 0.14696,-0.21189 0.31537,-0.26298 z"
   id="path34"
   style="stroke-width:0.223498" />
<path
   fill="#00ff80"
   opacity="1"
   stroke="none"
   d="m 45.42567,34.891973 c 0.01,-0.0849 0.11533,-0.10439 0.16909,-0.10502 -0.0557,0.3528 -0.16518,0.70622 -0.35196,1.08599 0.006,-0.28113 0.0898,-0.58861 0.18287,-0.98097 z"
   id="path35"
   style="stroke-width:0.223498" />
<path
   fill="#00ff80"
   opacity="1"
   stroke="none"
   d="m 45.71338,34.825563 c 0.0213,-0.1652 0.11909,-0.30188 0.27776,-0.46099 -0.0265,0.14822 -0.11387,0.31886 -0.27776,0.46099 z"
   id="path36"
   style="stroke-width:0.223498" />
<path
   style="font-size:96px;line-height:0;font-family:'Heiti SC';-inkscape-font-specification:'Heiti SC';white-space:pre;fill:#bac0c4"
   d="m 177.03341,102.71181 h -34.848 V 32.439808 h 8.352 v 62.304 h 26.496 z M 220.1374,30.711808 q 10.272,0 18.912,4.896 8.64,4.8 13.536,13.344 4.992,8.544 4.992,18.624 0,9.984 -4.896,18.528 -4.896,8.544 -13.44,13.44 -8.544,4.896002 -18.624,4.896002 -9.984,0 -18.624,-4.800002 -8.64,-4.896 -13.536,-13.344 -4.896,-8.544 -4.896,-18.528 0,-10.08 4.896,-18.624 4.896,-8.64 13.344,-13.536 8.544,-4.896 18.336,-4.896 z m 0.288,65.664 q 12,0 20.256,-8.16 8.352,-8.16 8.352,-20.448 0,-12.288 -8.448,-20.64 -8.352,-8.352 -20.16,-8.352 -12.096,0 -20.256,8.448 -8.064,8.352 -8.064,20.448 0,12 8.352,20.352 8.352,8.352 19.968,8.352 z m 115.48795,-6.528 q -11.328,14.592002 -31.104,14.592002 -16.704,0 -27.36,-10.560002 -10.656,-10.56 -10.656,-26.688 0,-9.984 4.896,-18.432 4.992,-8.448 13.728,-13.248 8.736,-4.8 18.816,-4.8 10.176,0 18.144,3.936 8.064,3.84 13.44,11.328 l -6.336,4.896 q -9.984,-12.096 -24.672,-12.096 -12,0 -20.736,8.448 -8.64,8.448 -8.64,20.736 0,12.192 8.448,20.448 8.544,8.16 22.08,8.16 13.536,0 23.52,-11.616 z m 60.76798,12.864002 h -10.944 l -29.28,-31.104002 v 31.104002 h -8.448 V 32.439808 h 8.448 v 24.96 l 26.496,-24.96 h 11.328 l -33.888,31.584 z m 42.91196,0 h -34.848 V 32.439808 h 8.352 v 62.304 h 26.496 z m 16.79999,0 h -8.256 V 32.439808 h 8.256 z m 43.77598,-38.496002 q 6.72,2.496 10.08,7.104 3.456,4.608 3.456,10.944 0,8.832 -6.432,14.688 -6.336,5.760002 -16.608,5.760002 h -19.68 V 32.439808 h 14.304 q 11.136,0 16.896,4.608 5.856,4.512 5.856,12.96 0,9.216 -7.872,14.208 z m -21.024,-2.976 h 3.264 q 8.64,0 12.864,-2.688 4.32,-2.688 4.32,-8.544 0,-9.504 -13.152,-9.504 h -7.296 z m 0,33.408 h 7.872 q 7.392,0 10.752,-1.44 3.36,-1.44 5.376,-4.416 2.016,-2.976 2.016,-6.048 0,-3.072 -1.248,-5.376 -1.152,-2.4 -3.552,-4.224 -2.304,-1.824 -5.76,-2.688 -3.36,-0.96 -12.288,-0.96 h -3.168 z"
   id="text36"
   aria-label="LOCKLIB" /></svg>
