<?xml version="1.0" encoding="UTF-8" standalone="no"?>
<svg
   version="1.1"
   id="Layer_1"
   x="0px"
   y="0px"
   width="604"
   viewBox="0 0 604 167"
   enable-background="new 0 0 554 576"
   xml:space="preserve"
   sodipodi:docname="logo_7.svg"
   height="167"
   inkscape:version="1.4.2 (ebf0e940, 2025-05-08)"
   xmlns:inkscape="http://www.inkscape.org/namespaces/inkscape"
   xmlns:sodipodi="http://sodipodi.sourceforge.net/DTD/sodipodi-0.dtd"
   xmlns="http://www.w3.org/2000/svg"
   xmlns:svg="http://www.w3.org/2000/svg"><defs
   id="defs36"><rect
     x="115.19471"
     y="20.641827"
     width="423.49039"
     height="118.52404"
     id="rect36" /></defs><sodipodi:namedview
   id="namedview36"
   pagecolor="#ffffff"
   bordercolor="#000000"
   borderopacity="0.25"
   inkscape:showpageshadow="2"
   inkscape:pageopacity="0.0"
   inkscape:pagecheckerboard="0"
   inkscape:deskcolor="#d1d1d1"
   inkscape:zoom="1.7903163"
   inkscape:cx="-38.819956"
   inkscape:cy="131.541"
   inkscape:window-width="3072"
   inkscape:window-height="1186"
   inkscape:window-x="0"
   inkscape:window-y="25"
   inkscape:window-maximized="0"
   inkscape:current-layer="Layer_1" />

<path
   fill="#bac2c5"
   opacity="1"
   stroke="none"
   d="m 50.652474,30.864286 c 3.076116,-2.799803 6.488857,-5.04428 10.530016,-6.181178 6.759781,-1.901725 13.240081,-1.178916 19.198198,2.570896 8.59557,5.409746 13.286562,13.485728 15.228353,23.27561 0.50907,2.566594 0.722366,5.191865 1.100369,8.005159 1.275172,0 2.742768,0.07762 4.19921,-0.01672 2.75226,-0.17825 4.78299,2.286727 5.11982,4.463527 0.66463,4.295481 1.07311,8.63008 1.62271,12.944009 0.48401,3.799159 1.039,7.589304 1.51956,11.388872 0.3946,3.119816 0.70283,6.250516 1.09175,9.37111 0.38846,3.116933 0.84577,6.225239 1.24299,9.341119 0.38675,3.03368 0.73228,6.0726 1.10439,9.10819 0.0628,0.51208 0.20265,1.01582 0.24837,1.52863 0.20181,2.26419 -0.45257,3.34269 -2.91364,4.55163 -27.621006,0.0297 -55.035346,0.0295 -82.4497,0.0284 -2.466615,-9e-5 -4.100024,-1.56876 -3.959109,-4.04925 0.128639,-2.26443 0.492102,-4.51599 0.765792,-6.77156 0.263249,-2.16956 0.539148,-4.33762 0.818483,-6.50517 0.328287,-2.54743 0.676166,-5.092378 0.997136,-7.640711 0.294663,-2.33947 0.554072,-4.683366 0.848755,-7.022831 0.315661,-2.506001 0.66461,-5.007815 0.980074,-7.513851 0.299822,-2.381808 0.566369,-4.767791 0.863644,-7.14995 0.312843,-2.506866 0.609759,-5.016526 0.97893,-7.515313 0.322336,-2.181733 0.229356,-4.471394 1.529199,-6.423412 0.25541,-0.31024 0.510819,-0.62048 0.893765,-1.008674 0.580941,-0.345067 1.034346,-0.612167 1.582155,-0.900756 0.466722,-0.09773 0.839028,-0.174076 1.327834,-0.233419 0.822297,0.0059 1.52812,-0.0059 2.35098,3.05e-4 0.706511,0.01707 1.295952,0.01707 1.859719,0.01707 0.134503,-2.054173 0.100654,-3.968653 0.410173,-5.825929 1.095806,-6.576445 3.357596,-12.693733 7.477622,-18.033159 0.217742,-0.282193 0.220909,-0.729952 0.323976,-1.100634 0.775453,-0.797326 1.550918,-1.594653 2.476458,-2.351552 0.310719,-0.0899 0.471374,-0.220139 0.632018,-0.350409 M 65.582406,92.45372 c 0.08616,0.465144 0.172312,0.930275 0.182272,1.549749 -0.425956,0.371862 -0.851911,0.743718 -1.444777,1.122127 -0.27643,0.177852 -0.55286,0.355682 -0.997882,0.588037 -1.840875,1.63646 -2.120694,3.794941 -1.910435,6.052207 0.271438,2.91422 3.48734,6.07168 6.483164,5.88699 0.446485,-0.0105 0.89297,-0.0203 1.536292,-0.003 0.296294,-0.0843 0.592597,-0.16848 1.07419,-0.26263 0.460911,-0.25842 0.921822,-0.51685 1.560831,-0.78215 0.328337,-0.26859 0.656055,-0.53793 0.985093,-0.80565 2.995075,-2.43678 3.104899,-8.118857 -0.0498,-10.343974 -1.895984,-1.337296 -2.164944,-2.935609 -1.947681,-4.91682 0.0138,-0.126319 -0.02222,-0.25811 -0.0011,-0.609349 -0.02455,-0.748319 -0.139975,-1.565578 1.287781,-1.354734 0.588714,0 1.177442,0 1.757822,0 0,-0.778458 0,-1.397535 0,-2.112417 -1.034254,0 -1.97118,0 -3.048772,0 0,-1.063446 0,-2.03445 0,-3.026044 -1.896557,0 -3.647411,0 -5.432017,0 0,0.548534 0,1.018822 -0.03402,1.722352 0.01169,0.706186 0.02279,1.41237 -1.74e-4,2.36121 0.0082,1.573352 0.0173,3.146705 -7.02e-4,4.934491 M 52.912803,39.06578 c -0.123479,0.130949 -0.246969,0.26191 -0.423068,0.575505 0.0082,0.118288 0.01637,0.236576 0.02022,0.34177 0,0 0.01274,0.0059 -0.141096,-0.0809 -0.12093,0.111764 -0.241872,0.223587 -0.45779,0.487579 -0.32504,0.393957 -0.703894,0.755204 -0.966563,1.18711 -1.994035,3.278706 -3.393042,6.790504 -3.932364,10.603073 -0.291804,2.062753 -0.460525,4.142939 -0.697733,6.335064 11.823292,0 23.252392,0 34.909616,0.01567 0.532143,-0.0094 1.064286,-0.01987 1.823443,-0.0035 0.533149,-0.0118 1.066309,-0.02373 1.832877,-0.0024 0.706606,-0.01169 1.413211,-0.02244 2.354102,6.08e-4 0.590223,0 1.180458,0 2.055549,0 C 89.034812,56.158549 88.921694,53.96612 88.542548,51.8207 87.631026,46.662774 85.55125,41.99612 82.05244,38.067919 77.688766,33.168734 72.248541,30.701138 65.60872,31.380796 c -2.53663,0.259641 -4.898588,1.175945 -7.079572,2.514605 -0.05588,0.03426 -0.01777,0.221634 -0.0082,0.340647 0,0 0.0011,-0.01578 -0.164829,-0.121666 -0.279821,0.214035 -0.559653,0.428072 -0.935992,0.800319 -0.94552,0.815062 -1.891028,1.630112 -2.823138,2.453111 0,0 0.0011,-0.01555 -0.138747,-0.130656 -0.126811,0.117306 -0.253621,0.234599 -0.545062,0.436629 -0.295649,0.51497 -0.591298,1.029939 -0.884037,1.528226 0,0 0.01613,0.0046 -0.116558,-0.137075 z"
   id="path2"
   style="stroke-width:0.261287" />
<path
   fill="#0080ff"
   opacity="1"
   stroke="none"
   d="m 26.38121,65.371807 c 0.627045,-0.667793 1.254088,-1.335596 1.979393,-1.846931 -0.08338,1.424132 -0.272133,2.690856 -0.44525,3.959698 -0.428011,3.137025 -0.870473,6.272297 -1.265627,9.413495 -0.305123,2.425532 -0.527339,4.861411 -0.822926,7.288253 -0.315576,2.590911 -0.68453,5.175288 -1.010581,7.764983 -0.28914,2.296535 -0.533658,4.598747 -0.829836,6.894336 -0.405144,3.140159 -0.841335,6.276309 -1.262738,9.414369 -0.427092,3.18042 -0.77379,6.37418 -1.301719,9.53773 -0.477839,2.86343 1.237071,5.01386 4.193815,5.01387 27.501711,1.2e-4 55.003428,3e-5 82.505139,0 -0.58124,0.64277 -1.16248,1.28554 -1.89358,2.01874 -0.56747,0.17125 -0.98501,0.32266 -1.40265,0.32284 -27.378794,0.0117 -54.757606,0.0121 -82.136419,0.006 -1.95062,-4.5e-4 -3.68312,-1.68963 -3.597243,-3.64529 0.079,-1.79906 0.357712,-3.59076 0.57952,-5.38186 0.395549,-3.19401 0.820377,-6.38439 1.22177,-9.5777 0.299939,-2.38622 0.573444,-4.77578 0.874631,-7.161817 0.397682,-3.150493 0.823515,-6.297461 1.213372,-9.448889 0.295442,-2.38825 0.531069,-4.783971 0.833834,-7.171228 0.399354,-3.148867 0.835408,-6.293094 1.261247,-9.438572 0.339158,-2.505205 0.68666,-5.009277 1.030457,-7.513851 0,0 0.0046,0.02151 0.07112,0.0046 0.112396,-0.162222 0.158332,-0.307293 0.20427,-0.452365 z"
   id="path3"
   style="stroke-width:0.261287" />
<path
   fill="#800080"
   opacity="1"
   stroke="none"
   d="m 108.16329,122.72914 c -27.544121,0.0826 -55.045838,0.0826 -82.547549,0.0825 -2.956744,-1e-5 -4.671654,-2.15045 -4.193815,-5.01387 0.527929,-3.16355 0.874627,-6.35732 1.301719,-9.53773 0.421403,-3.13807 0.857594,-6.27421 1.262738,-9.414375 0.296178,-2.295589 0.540696,-4.5978 0.829836,-6.894337 0.326051,-2.589695 0.695005,-5.17407 1.010581,-7.764981 0.295587,-2.426842 0.517803,-4.862721 0.822926,-7.288254 0.395154,-3.141199 0.837616,-6.27647 1.265627,-9.413495 0.173117,-1.268841 0.361871,-2.535567 0.536264,-3.912899 -0.0073,-0.10966 0.0087,-0.09446 0.07957,-0.101363 0.11443,-0.154659 0.158055,-0.302373 0.201683,-0.450086 0.799597,-0.796309 1.599199,-1.592607 2.491855,-2.378816 -1.206787,1.962096 -1.113808,4.251757 -1.436144,6.43349 -0.369171,2.498787 -0.666087,5.008447 -0.97893,7.515312 -0.297274,2.38216 -0.563822,4.768143 -0.863644,7.149951 -0.315463,2.506036 -0.664412,5.007851 -0.980074,7.513851 -0.294682,2.339465 -0.554092,4.68336 -0.848755,7.022831 -0.32097,2.548333 -0.668848,5.093271 -0.997136,7.640701 -0.279334,2.16756 -0.555233,4.33564 -0.818483,6.50518 -0.273689,2.25558 -0.637152,4.50713 -0.765792,6.77156 -0.140914,2.48049 1.492494,4.04917 3.95911,4.04926 27.41435,10e-4 54.82869,10e-4 82.364753,0.005 -0.47018,0.46826 -1.06205,0.93312 -1.69634,1.48045 z"
   id="path4"
   style="stroke-width:0.261287" />
<path
   fill="#00ff80"
   opacity="1"
   stroke="none"
   d="m 26.023909,65.758668 c -0.261887,2.565717 -0.609389,5.069789 -0.948547,7.574994 -0.425839,3.145477 -0.861893,6.289704 -1.261247,9.438572 -0.302765,2.387257 -0.538392,4.782978 -0.833834,7.171228 -0.389857,3.151429 -0.81569,6.298396 -1.213372,9.448891 -0.301187,2.386037 -0.574692,4.775597 -0.874631,7.161817 -0.401393,3.1933 -0.826221,6.38369 -1.22177,9.5777 -0.221808,1.7911 -0.500517,3.5828 -0.57952,5.38186 -0.08588,1.95567 1.646623,3.64484 3.597243,3.64529 27.378813,0.006 54.757625,0.006 82.136419,-0.006 0.41764,-1.8e-4 0.83518,-0.1516 1.35999,-0.24179 -0.56024,0.63263 -1.22771,1.27464 -2.0584,1.99873 -27.710662,0.082 -55.258103,0.0827 -82.805551,0.0812 -2.186846,-1.1e-4 -3.881301,-1.62309 -3.800532,-3.78839 0.05555,-1.48947 0.325192,-2.97098 0.499987,-4.45595 0.274806,-2.33458 0.53481,-4.67106 0.829763,-7.0031 0.31572,-2.49624 0.682403,-4.98606 0.993963,-7.4828 0.296463,-2.37573 0.532746,-4.758972 0.828,-7.134859 0.315571,-2.539431 0.684549,-5.072192 1.001653,-7.611429 0.291369,-2.333164 0.521202,-4.674113 0.82139,-7.006061 0.310146,-2.40934 0.665487,-4.812964 1.013651,-7.217266 0.41846,-2.889753 0.30465,-5.876889 1.566288,-8.613421 0.289051,-0.326864 0.5781,-0.653716 0.949057,-0.919438 z"
   id="path5"
   style="stroke-width:0.261287" />
<path
   fill="#ff8040"
   opacity="1"
   stroke="none"
   d="m 24.982391,66.663105 c -1.169177,2.751532 -1.055367,5.738669 -1.473827,8.628421 -0.348164,2.404303 -0.703505,4.807926 -1.013651,7.217267 -0.300188,2.331947 -0.530021,4.672896 -0.82139,7.00606 -0.317104,2.539237 -0.686082,5.071998 -1.001653,7.611429 -0.295254,2.375897 -0.531537,4.759128 -0.828,7.134868 -0.31156,2.49673 -0.678243,4.98656 -0.993963,7.48279 -0.294953,2.33204 -0.554957,4.66853 -0.829763,7.00311 -0.174795,1.48496 -0.444427,2.96648 -0.499987,4.45594 -0.08077,2.1653 1.613686,3.78828 3.800532,3.78838 27.547448,10e-4 55.094889,9e-4 82.761681,8.4e-4 -0.53285,1.10017 -1.57393,1.31211 -2.74639,1.31174 -23.246801,-0.007 -46.493605,-0.005 -69.740409,-0.005 -3.830933,0 -7.661869,2.8e-4 -11.492802,-8e-5 -2.940559,-2.9e-4 -4.668451,-2.18101 -4.157627,-5.03698 0.443996,-2.48232 0.691564,-4.99967 1.030775,-7.50088 0.425459,-3.13718 0.879447,-6.27068 1.276525,-9.41142 0.306631,-2.42535 0.514265,-4.86323 0.820608,-7.288621 0.396691,-3.140731 0.870921,-6.27166 1.267919,-9.412355 0.306586,-2.425405 0.515913,-4.863107 0.822194,-7.28857 0.396593,-3.14066 0.934954,-6.265995 1.24145,-9.414558 0.193463,-1.987384 0.363069,-3.926566 1.642262,-5.560546 0.225967,-0.288636 0.5593,-0.493238 0.935516,-0.721641 z"
   id="path6"
   style="stroke-width:0.261287" />
<path
   fill="#800080"
   opacity="1"
   stroke="none"
   d="m 47.482597,33.636463 c -0.04162,0.300466 -0.04478,0.748225 -0.262575,1.030418 -4.120026,5.339427 -6.381816,11.456714 -7.477622,18.033159 -0.30948,1.857277 -0.27567,3.771756 -0.410173,5.825929 -0.563767,0 -1.153208,0 -1.859767,-0.133322 -0.02466,-1.503558 -0.06091,-2.897105 0.182565,-4.23995 1.010029,-5.570799 2.694608,-10.899377 5.913435,-15.646814 0.232787,-0.343336 0.24076,-0.839098 0.353249,-1.264002 0,0 0.07669,-0.05565 0.181244,-0.0082 0.244724,-0.184317 0.384885,-0.415515 0.525035,-0.646713 0.93107,-0.959923 1.862139,-1.919857 2.854609,-2.949984 z"
   id="path7"
   style="stroke-width:0.261287" />
<path
   fill="#0080ff"
   opacity="1"
   stroke="none"
   d="m 43.847075,37.303072 c -0.03788,0.363713 -0.04582,0.859475 -0.278615,1.202811 -3.218827,4.747437 -4.903406,10.076015 -5.913435,15.646814 -0.243462,1.342845 -0.207255,2.736392 -0.299612,4.222917 -0.705765,0.127523 -1.411588,0.138746 -2.18621,0.04045 0.598185,-3.141222 1.121385,-6.214416 1.98086,-9.190481 0.610881,-2.115246 1.67511,-4.099566 2.541599,-6.131492 0.0046,0.01052 -0.01848,0.0152 0.0719,-0.01554 0.218362,-0.443984 0.346342,-0.857161 0.473058,-1.264878 -0.0011,0.0059 -0.01239,0.007 0.07704,0.04045 0.191601,-0.166161 0.293743,-0.365654 0.435706,-0.650267 0.15848,-0.297275 0.277154,-0.50944 0.395828,-0.721594 0,0 0.07026,-0.06979 0.154576,-0.148602 0.134959,-0.241965 0.185615,-0.405157 0.23626,-0.568349 0.745466,-0.800309 1.490921,-1.600617 2.31102,-2.462114 z"
   id="path8"
   style="stroke-width:0.261287" />
<path
   fill="#ff8040"
   opacity="1"
   stroke="none"
   d="m 33.699302,58.763538 c -0.453417,0.267101 -0.906822,0.534201 -1.448915,0.800285 0.5046,-2.344749 0.97463,-4.72844 1.718682,-7.023268 1.269916,-3.916758 3.114379,-7.563947 5.813887,-10.802869 0.141926,0.03004 0.173749,0.06232 0.194371,0.193951 -0.108841,0.458701 -0.206519,0.818171 -0.304172,1.177629 0,0 0.02314,-0.0046 -0.07107,-0.06757 -3.321449,4.723424 -4.993109,10.082432 -5.902761,15.721846 z"
   id="path9"
   style="stroke-width:0.261287" />
<path
   fill="#ff8040"
   opacity="1"
   stroke="none"
   d="m 41.06295,40.404521 c -0.03635,0.289769 -0.155079,0.501934 -0.384722,0.825432 -0.225318,0.271121 -0.339654,0.430912 -0.45399,0.590702 0,0 0.01169,-0.0011 -0.0505,-0.0059 -0.06161,-0.0046 -0.185218,0.01813 -0.185218,0.01813 -0.0318,-0.03239 -0.0636,-0.06465 -0.136829,-0.151688 0.348749,-0.487707 0.73886,-0.920747 1.211252,-1.276183 z"
   id="path10"
   style="stroke-width:0.261287" />
<path
   fill="#0080ff"
   opacity="1"
   stroke="none"
   d="m 44.550911,36.618783 c -0.06313,0.198861 -0.203234,0.430059 -0.437168,0.59296 0.05752,-0.232402 0.20881,-0.396507 0.437168,-0.59296 z"
   id="path11"
   style="stroke-width:0.261287" />
<path
   fill="#800080"
   opacity="1"
   stroke="none"
   d="m 50.561613,30.854103 c -0.06979,0.140453 -0.230438,0.270736 -0.469949,0.322188 0.07377,-0.163344 0.22644,-0.247858 0.469949,-0.322188 z"
   id="path12"
   style="stroke-width:0.261287" />
<path
   fill="#00ff80"
   opacity="1"
   stroke="none"
   d="m 26.28862,65.383217 c 0.04665,0.133661 7.15e-4,0.278732 -0.122671,0.4412 -0.04161,-0.131674 -0.0058,-0.280733 0.122671,-0.4412 z"
   id="path13"
   style="stroke-width:0.261287" />
<path
   fill="#0080ff"
   opacity="1"
   stroke="none"
   d="m 28.640024,63.031886 c 0.04921,0.136047 0.0057,0.283759 -0.117323,0.445479 -0.04469,-0.135263 -0.01008,-0.284543 0.117323,-0.445479 z"
   id="path14"
   style="stroke-width:0.261287" />
<path
   fill="#ff8040"
   opacity="1"
   stroke="none"
   d="m 41.429773,39.798936 c 0.05565,0.129441 0.0046,0.292633 -0.112232,0.517319 -0.04244,-0.120181 -0.01824,-0.301869 0.112232,-0.517319 z"
   id="path15"
   style="stroke-width:0.261287" />

<path
   fill="#0080ff"
   opacity="1"
   stroke="none"
   d="m 54.583832,37.360719 c 0.945521,-0.815062 1.891028,-1.630112 2.972103,-2.52715 0.412534,-0.258788 0.689514,-0.435612 0.966493,-0.612435 0,0 -0.0011,0.01578 0.09294,0.01169 3.224765,-1.391889 6.576446,-1.73671 9.851048,-1.207021 5.011627,0.810666 9.019678,3.507262 12.202157,7.512834 4.192146,5.276378 6.108239,11.303716 6.331569,17.953568 -0.706606,0.01169 -1.413212,0.02244 -2.283501,-0.07505 -0.306066,-0.94829 -0.425126,-1.792579 -0.594491,-2.626673 -1.501792,-7.396136 -4.802279,-13.656053 -11.329482,-17.865899 -4.008635,-2.585451 -8.40384,-3.243505 -13.004955,-2.339429 -1.782151,0.350164 -3.472025,1.16996 -5.203929,1.775815 z"
   id="path17"
   style="stroke-width:0.261287" />
<path
   fill="#800080"
   opacity="1"
   stroke="none"
   d="M 87.117332,58.509088 C 86.77686,51.842086 84.860767,45.814747 80.668622,40.53837 c -3.18248,-4.005573 -7.19053,-6.702169 -12.202157,-7.512834 -3.274603,-0.529689 -6.626284,-0.184868 -9.858799,1.2055 -0.09621,-0.113168 -0.134351,-0.300502 -0.07845,-0.334791 2.180983,-1.338659 4.542941,-2.254963 7.079571,-2.514605 6.639821,-0.679658 12.080046,1.787938 16.44372,6.687123 3.49881,3.928202 5.578586,8.594855 6.490108,13.752782 0.379146,2.145419 0.492265,4.337849 0.747452,6.704693 -0.875092,0 -1.465328,0 -2.172693,-0.01719 z"
   id="path18"
   style="stroke-width:0.261287" />
<path
   fill="#00ff80"
   opacity="1"
   stroke="none"
   d="m 54.590531,37.364694 c 1.725205,-0.60983 3.415081,-1.429626 5.197231,-1.779789 4.601115,-0.904076 8.996319,-0.246022 13.004954,2.339429 6.527204,4.209846 9.82769,10.469762 11.329484,17.865898 0.169365,0.834095 0.288423,1.678383 0.477768,2.609862 -0.486163,0.103814 -1.019324,0.115622 -1.707843,0.02198 -0.737797,-2.170217 -1.195996,-4.28005 -1.92727,-6.290569 -1.778398,-4.889435 -4.712306,-8.948563 -9.037342,-11.935676 -4.197886,-2.899292 -8.838821,-3.762987 -13.779448,-2.779157 -1.75718,0.349907 -3.417208,1.187789 -5.12158,1.802914 0.295649,-0.51497 0.591299,-1.02994 1.051076,-1.574147 0.283117,-0.116909 0.402095,-0.204578 0.521083,-0.292248 0,0 -0.0011,0.01555 -0.0082,0.01169 z"
   id="path19"
   style="stroke-width:0.261287" />
<path
   fill="#ff8040"
   opacity="1"
   stroke="none"
   d="m 53.027947,39.211191 c 1.70291,-0.606778 3.362938,-1.44466 5.120118,-1.794566 4.940627,-0.983831 9.581562,-0.120136 13.779448,2.779157 4.325036,2.987113 7.258944,7.046241 9.037342,11.935675 0.731274,2.010519 1.189473,4.120353 1.813763,6.277253 -0.490278,0.102176 -1.022422,0.111998 -1.668621,0.114103 -1.078912,-2.723602 -1.768484,-5.579603 -3.065722,-8.126054 -2.729389,-5.357757 -6.765171,-9.462059 -12.690693,-11.28978 -4.3039,-1.32753 -8.534648,-0.961478 -12.740778,0.880858 -0.10662,-0.110011 -0.11492,-0.228299 -0.01742,-0.438115 0.220489,-0.174918 0.335292,-0.258309 0.450085,-0.341711 0,0 -0.01613,-0.0046 -0.01754,0.0035 z"
   id="path20"
   style="fill:#ff8242;fill-opacity:1;stroke-width:0.261287" />
<path
   fill="#0080ff"
   opacity="1"
   stroke="none"
   d="m 71.887963,106.61147 c -0.460911,0.25844 -0.921822,0.51686 -1.454258,0.68191 1.1674,-3.71141 0.0082,-6.99051 -2.980871,-8.880978 -0.639816,-0.404678 -0.888117,-0.894886 -0.864338,-1.68624 0.02911,-0.969228 -0.17147,-1.945354 -0.225247,-3.012815 0.165378,-0.461659 0.283245,-0.829009 0.396249,-1.181184 0.512889,-0.02549 0.968925,-0.04804 1.517037,-0.05542 0.27857,0.01812 0.465098,0.02105 0.668868,0.143095 0.02011,0.336545 0.04841,0.557174 0.02151,0.770871 -0.164771,1.311986 0.08779,2.287142 1.392951,3.073725 1.28543,0.77467 2.126937,2.092086 2.557288,3.612556 0.6646,2.348 0.119702,4.48351 -1.029215,6.53453 z"
   id="path21"
   style="stroke-width:0.261287" />
<path
   fill="#800080"
   opacity="1"
   stroke="none"
   d="m 71.977024,106.60804 c 1.059856,-2.0476 1.604754,-4.18309 0.940153,-6.53109 -0.430352,-1.52047 -1.271857,-2.837886 -2.557288,-3.612557 -1.305212,-0.786583 -1.557722,-1.761738 -1.392952,-3.073724 0.02689,-0.213697 -0.0011,-0.434327 -0.0035,-0.885769 -0.01169,-0.853115 -0.02338,-1.472261 0.02666,-2.180738 0.717572,-0.117364 1.372902,-0.145363 2.028231,-0.173351 0.01286,0.129242 0.04887,0.261032 0.03507,0.387352 -0.217263,1.981211 0.05167,3.579524 1.947681,4.91682 3.154701,2.225116 3.044877,7.907197 0.0498,10.343977 -0.329039,0.26771 -0.656756,0.53706 -1.07413,0.80908 z"
   id="path22"
   style="stroke-width:0.261287" />

<path
   fill="#00ff80"
   opacity="1"
   stroke="none"
   d="m 66.315738,93.807669 c 0.10124,0.973139 0.301903,1.949265 0.272758,2.918493 -0.02373,0.791354 0.224522,1.281562 0.864338,1.68624 2.989019,1.890468 4.148271,5.169568 2.888233,8.885948 -0.31743,0.18256 -0.613733,0.2668 -1.009164,0.22026 0.267813,-3.39969 -1.100423,-5.79801 -3.756254,-7.607924 -0.311198,-0.212073 -0.426739,-0.802013 -0.510059,-1.240162 -0.22402,-1.177794 0.46561,-2.502914 -0.578767,-3.551535 0.425944,-0.371851 0.851899,-0.743707 1.393992,-1.210089 0.222406,-0.0968 0.328664,-0.09902 0.434923,-0.10124 z"
   id="path24"
   style="stroke-width:0.261287" />
<path
   fill="#ff8040"
   opacity="1"
   stroke="none"
   d="m 64.403362,95.122273 c 1.127838,1.045337 0.438208,2.370457 0.662228,3.548251 0.08335,0.438149 0.198861,1.028089 0.510059,1.240162 2.655831,1.809914 4.024067,4.208234 3.65784,7.594424 -0.445771,0.12742 -0.892256,0.13755 -1.450447,0.13972 -0.0094,-2.70125 -1.282145,-4.64089 -3.451438,-6.08271 -0.596514,-0.39648 -0.93529,-0.83882 -0.874358,-1.651012 0.09984,-1.330463 0.02771,-2.673811 0.03075,-4.13188 0.279014,-0.297999 0.555443,-0.475829 0.915334,-0.656955 z"
   id="path25"
   style="stroke-width:0.261287" />
<path
   fill="#800080"
   opacity="1"
   stroke="none"
   d="m 65.617291,84.924728 c 0,-0.470289 0,-0.940576 0,-1.489109 1.784606,0 3.535461,0 5.432018,0 0,0.991593 0,1.962598 0,3.026044 1.077591,0 2.014519,0 3.048771,0 0,0.714882 0,1.333959 0,2.112416 -0.580379,0 -1.169106,0 -1.886,-0.125092 -1.148169,-0.264972 -2.168135,-0.404853 -3.27963,-0.557278 0,-0.970878 0,-1.909733 0,-2.966981 -1.168336,0 -2.241741,0 -3.315159,0 z"
   id="path26"
   style="stroke-width:0.261287" />
<path
   fill="#0080ff"
   opacity="1"
   stroke="none"
   d="m 65.600293,85.041355 c 1.090416,-0.116675 2.163821,-0.116675 3.332157,-0.116675 0,1.057249 0,1.996105 0,2.966983 1.111495,0.152424 2.131461,0.292305 3.162838,0.540268 -1.182785,-0.06874 -1.067396,0.748517 -1.059739,1.607828 -0.672246,0.138993 -1.327576,0.166993 -2.161506,0.283935 -0.848837,0.08897 -1.519049,0.08897 -2.276218,0.08897 0,-1.150074 0,-2.091151 0,-3.067663 -0.387481,-0.02712 -0.683902,-0.04782 -0.980323,-0.06851 -0.01169,-0.706185 -0.02279,-1.412369 -0.01719,-2.23517 z"
   id="path27"
   style="stroke-width:0.261287" />
<path
   fill="#00ff80"
   opacity="1"
   stroke="none"
   d="m 33.793694,58.742051 c 0.81526,-5.617926 2.486922,-10.976934 5.803752,-15.711184 -0.772273,2.095103 -1.836502,4.079423 -2.447383,6.194669 -0.859475,2.976066 -1.382675,6.049258 -2.097347,9.17353 -0.419994,0.168908 -0.7923,0.245203 -1.259022,0.342985 z"
   id="path28"
   style="stroke-width:0.261287" />
<path
   fill="#00ff80"
   opacity="1"
   stroke="none"
   d="m 65.600305,87.397853 c 0.313618,-0.100654 0.610039,-0.07984 0.99752,-0.05285 0,0.976512 0,1.917589 0,3.067664 0.757169,0 1.427381,0 2.213964,4.09e-4 0.128623,0.619532 0.140886,1.238678 0.134748,1.972687 -0.204904,0.111999 -0.391432,0.109076 -0.729695,5.9e-5 -0.970432,-0.119609 -1.789131,-0.1331 -2.607828,-0.146615 -0.0082,-1.573352 -0.0173,-3.146705 -0.0082,-4.841385 z"
   id="path29"
   style="stroke-width:0.261287" />
<path
   fill="#ff8040"
   opacity="1"
   stroke="none"
   d="m 65.59571,92.346455 c 0.832001,-0.09376 1.6507,-0.08021 2.529078,0.02408 -0.396365,0.113518 -0.852401,0.136116 -1.36529,0.161567 -0.11305,0.352175 -0.230871,0.719524 -0.396249,1.181183 -0.15377,0.09656 -0.260028,0.09878 -0.444346,0.118381 -0.164185,-0.447782 -0.250347,-0.912913 -0.323193,-1.485273 z"
   id="path30"
   style="stroke-width:0.261287" />
<path
   fill="#800080"
   opacity="1"
   stroke="none"
   d="m 58.4394,34.168174 c -0.193951,0.229783 -0.470931,0.406607 -0.835205,0.586295 0.192524,-0.211171 0.472356,-0.425207 0.835205,-0.586295 z"
   id="path31"
   style="stroke-width:0.261287" />
<path
   fill="#ff8040"
   opacity="1"
   stroke="none"
   d="m 52.445789,39.945329 c -0.04185,0.126775 -0.16055,0.210435 -0.359493,0.293171 0.04068,-0.1127 0.161661,-0.224499 0.359493,-0.293171 z"
   id="path32"
   style="stroke-width:0.261287" />
<path
   fill="#00ff80"
   opacity="1"
   stroke="none"
   d="m 52.979172,39.136919 c -0.0484,0.154529 -0.163251,0.23792 -0.357435,0.321521 0.04408,-0.13075 0.167587,-0.261711 0.357435,-0.321521 z"
   id="path33"
   style="stroke-width:0.261287" />
<path
   fill="#0080ff"
   opacity="1"
   stroke="none"
   d="m 54.52857,37.295578 c -0.04887,0.145234 -0.167892,0.232904 -0.368694,0.307445 0.04501,-0.130423 0.171809,-0.247717 0.368694,-0.307445 z"
   id="path34"
   style="stroke-width:0.261287" />
<path
   fill="#00ff80"
   opacity="1"
   stroke="none"
   d="m 39.977327,41.931637 c 0.01169,-0.09926 0.13483,-0.122042 0.19768,-0.122778 -0.06512,0.412453 -0.193109,0.82563 -0.41147,1.269614 0.007,-0.328665 0.104984,-0.688135 0.21379,-1.146836 z"
   id="path35"
   style="stroke-width:0.261287" />
<path
   fill="#00ff80"
   opacity="1"
   stroke="none"
   d="m 40.313685,41.853997 c 0.0249,-0.193132 0.139225,-0.352923 0.324724,-0.538935 -0.03098,0.173281 -0.133124,0.372774 -0.324724,0.538935 z"
   id="path36"
   style="stroke-width:0.261287" />
<path
   style="font-size:96px;line-height:0;font-family:'Heiti SC';-inkscape-font-specification:'Heiti SC';white-space:pre;fill:#bac0c4;stroke-width:1.16908"
   d="M 193.83776,121.21869 H 153.09753 V 39.064851 h 9.76419 v 72.838569 h 30.97604 z m 50.39216,-84.174016 q 12.00882,0 22.1097,5.723833 10.10089,5.6116 15.82471,15.60025 5.83607,9.988649 5.83607,21.77301 0,11.672129 -5.72383,21.660773 -5.72383,9.98865 -15.71248,15.71249 -9.98865,5.72384 -21.77301,5.72384 -11.67213,0 -21.77301,-5.61161 -10.10088,-5.72384 -15.82471,-15.60025 -5.72384,-9.988649 -5.72384,-21.660779 0,-11.784361 5.72384,-21.77301 5.72383,-10.100881 15.60025,-15.824714 9.98864,-5.723833 21.43631,-5.723833 z m 0.33669,76.766696 q 14.02901,0 23.68096,-9.53972 9.76418,-9.539721 9.76418,-23.905419 0,-14.365697 -9.87641,-24.129882 -9.76419,-9.764185 -23.56873,-9.764185 -14.14123,0 -23.68095,9.876417 -9.42749,9.764185 -9.42749,23.905418 0,14.029001 9.76418,23.793181 9.76419,9.76419 23.34426,9.76419 z m 135.01505,-7.63177 q -13.24337,17.05927 -36.36317,17.05927 -19.52837,0 -31.98612,-12.34553 -12.45775,-12.345523 -12.45775,-31.200501 0,-11.67213 5.72382,-21.548547 5.83607,-9.876417 16.04919,-15.488017 10.21311,-5.611601 21.99747,-5.611601 11.89659,0 21.21185,4.601513 9.42749,4.489281 15.71248,13.243378 l -7.40731,5.723832 q -11.67213,-14.141233 -28.84363,-14.141233 -14.029,0 -24.24211,9.876417 -10.10088,9.876417 -10.10088,24.242114 0,14.253466 9.87641,23.905415 9.98865,9.53973 25.81336,9.53973 15.82472,0 27.49685,-13.58008 z m 71.04284,15.03909 H 437.83006 L 403.59929,84.855512 v 36.363178 h -9.87641 V 39.064851 h 9.87641 v 29.180322 l 30.97604,-29.180322 h 13.24337 l -39.61789,36.924332 z m 50.16766,0 H 460.05195 V 39.064851 h 9.76418 v 72.838569 h 30.97603 z m 19.64059,0 h -9.65194 V 39.064851 h 9.65194 z m 51.17778,-45.005043 q 7.85624,2.918032 11.78436,8.305169 4.04035,5.387136 4.04035,12.794449 0,10.325345 -7.51954,17.171505 -7.40731,6.73392 -19.41614,6.73392 H 537.492 V 39.064851 h 16.72257 q 13.01892,0 19.75283,5.387136 6.84616,5.274905 6.84616,15.151322 0,10.774273 -9.20303,16.610338 z m -24.57881,-3.479193 h 3.81589 q 10.10088,0 15.03909,-3.142496 5.05044,-3.142496 5.05044,-9.988649 0,-11.110969 -15.37579,-11.110969 h -8.52963 z m 0,39.056736 h 9.20303 q 8.64186,0 12.56998,-1.68347 3.92812,-1.68348 6.28499,-5.16268 2.35687,-3.47919 2.35687,-7.070616 0,-3.591424 -1.45901,-6.284992 -1.34678,-2.8058 -4.15258,-4.938209 -2.69358,-2.132407 -6.73393,-3.142495 -3.92811,-1.122321 -14.3657,-1.122321 h -3.70365 z"
   id="text36"
   aria-label="LOCKLIB" /></svg>
